<svg id="Layer_3" enable-background="new 0 0 64 64" height="512" viewBox="0 0 64 64" width="512" xmlns="http://www.w3.org/2000/svg"><g fill="#b4dd7f"><path d="m25.95 29.35c-.09.11-.19.21-.29.31-1.45 1.44-3.45 2.34-5.66 2.34-13 0-18-9-18-24v-2h2s24 2 24 17v1c0 2.06-.78 3.93-2.05 5.35z"/><path d="m43 62h-8c-9.42 0-17.14-7.23-17.93-16.45.29-.18.58-.36.88-.54.56-.34 1.13-.67 1.71-1.01h5.34c9.94 0 18 8.06 18 18z"/><path d="m60 48h-10c-7.35 0-13.38-5.67-13.96-12.87.26-.14.51-.28.77-.42.42-.24.84-.47 1.26-.71h7.93c7.73 0 14 6.27 14 14z"/></g><path d="m11 47v2.74c-.46.37-.89.74-1.31 1.12-2.68-.6-4.69-3-4.69-5.86v-4c1.66 0 3.16.67 4.24 1.76 1.09 1.08 1.76 2.58 1.76 4.24z" fill="#8cc152"/><path d="m55 15v1c-2.76 0-5.26-1.12-7.07-2.93s-2.93-4.31-2.93-7.07v-4c5.52 0 10 4.48 10 10z" fill="#a0d468"/><path d="m44 30.42c-.28.19-.56.37-.85.55-5.13-.44-9.15-4.73-9.15-9.97v-4c2.76 0 5.26 1.12 7.07 2.93s2.93 4.31 2.93 7.07z" fill="#a0d468"/><path d="m62 30h-6c-2.73 0-5.04-1.83-5.76-4.33.59-.55 1.14-1.11 1.63-1.67h4.13c3.31 0 6 2.69 6 6z" fill="#8cc152"/><path d="m56 31h7v-1c0-3.86-3.141-7-7-7h-2.104c1.336-1.917 2.104-3.909 2.104-6v-2-3c0-6.065-4.935-11-11-11h-1v5c0 5.728 4.402 10.442 10 10.949v.051c0 4.045-3.682 7.865-9 11.549v-1.549c0-6.065-4.935-11-11-11h-1v5c0 4.783 3.147 8.943 7.516 10.419-3.297 1.976-6.921 3.917-10.543 5.838-.168-2.665-1.225-5.3-2.806-7.836 1.145-1.51 1.833-3.385 1.833-5.421v-1c0-6.578-4.368-11.784-12.632-15.055-6.068-2.402-12.034-2.921-12.368-2.945h-3v3c0 16.822 6.215 25 19 25 2.185 0 4.189-.784 5.75-2.083 1.386 2.336 2.25 4.723 2.25 7.083v.303c-5.925 3.142-11.635 6.213-16 9.407v-.71c0-3.859-3.141-7-7-7h-1v5c0 2.663 1.554 5.049 3.852 6.223-2.412 2.459-3.852 5.025-3.852 7.777h2c0-4.041 4.313-7.957 10.283-11.779 1.545 8.966 9.47 15.779 18.717 15.779h9v-1c0-10.477-8.523-19-19-19h-1.515c2.089-1.148 4.24-2.288 6.378-3.421 1.799-.953 3.605-1.911 5.384-2.877 1.286 7.005 7.494 12.298 14.753 12.298h11v-1c0-8.271-6.729-15-15-15h-4.243c3.043-1.839 5.821-3.725 8.102-5.682 1.205 2.217 3.548 3.682 6.141 3.682zm-10-25v-2.945c4.494.499 8 4.32 8 8.945v2.945c-4.494-.499-8-4.32-8-8.945zm-26 25c-11.598 0-17-7.309-17-23v-1.002l.917-.001c.23.019 23.083 2.084 23.083 16.003v1c0 1.335-.383 2.58-1.034 3.643-1.265-1.739-2.741-3.423-4.311-5.026l.344-6.565-1.998-.104-.252 4.8c-1.583-1.498-3.203-2.912-4.749-4.218v-4.53h-2v2.858c-.226-.187-.449-.372-.668-.553-1.913-1.584-3.565-2.952-4.625-4.011l-1.414 1.414c1.126 1.126 2.812 2.521 4.764 4.138.062.051.125.104.187.155h-5.244v2h7.642c1.473 1.243 3.016 2.585 4.523 4h-9.165v2h11.214c1.643 1.673 3.172 3.425 4.434 5.22-1.238 1.102-2.864 1.779-4.648 1.779zm32.279-6h3.721c2.415 0 4.435 1.721 4.899 4h-4.899c-2.027 0-3.839-1.25-4.605-3.088.308-.302.602-.606.884-.912zm-17.279-4v-2.945c4.494.499 8 4.32 8 8.945v2.88c-.027.017-.054.035-.081.052-4.466-.538-7.919-4.397-7.919-8.932zm-29 24v-2.899c2.279.465 4 2.484 4 4.899v2.26c-.19.157-.371.316-.554.474-2.018-.665-3.446-2.574-3.446-4.734zm19 0c9.038 0 16.451 7.09 16.971 16h-6.971c-8.147 0-15.146-5.91-16.68-13.748 1.47 1.719 3.506 3.05 5.805 4.255l1.946 4.864 1.857-.742-1.115-2.788c.386.183.77.365 1.161.549.695.326 1.394.658 2.091.994l.965 3.858 1.939-.484-.544-2.178c2.164 1.158 4.206 2.466 5.867 4.127l1.414-1.414c-1.806-1.806-3.96-3.198-6.224-4.416l1.964-.982-.895-1.789-3.282 1.64c-.815-.398-1.633-.785-2.447-1.167-.536-.252-1.068-.502-1.592-.752l3.283-1.969-1.029-1.715-4.372 2.623c-2.414-1.262-4.488-2.64-5.754-4.428.192-.113.384-.225.578-.338zm33.962 2h-8.962c-6.27 0-11.631-4.555-12.771-10.593 2.25 1.776 5.115 2.842 8.129 3.953 3.572 1.317 7.268 2.68 9.935 5.347l1.414-1.414c-2.978-2.978-6.882-4.417-10.657-5.809-2.754-1.015-5.371-1.993-7.361-3.484h7.311c6.832 0 12.449 5.297 12.962 12z"/></svg>